<!DOCTYPE svg PUBLIC "-//W3C//DTD SVG 20010904//EN" "http://www.w3.org/TR/2001/REC-SVG-20010904/DTD/svg10.dtd">
<svg version="1.0" xmlns="http://www.w3.org/2000/svg" width="1024px" height="1024px" viewBox="0 0 10240 10240" preserveAspectRatio="xMidYMid meet">
<g id="layer101" fill="#4a2f1b" stroke="none">
 <path d="M3920 7484 c-63 -54 -63 -53 -356 -1010 -119 -390 -220 -717 -225 -726 -7 -13 -4 -20 13 -29 13 -7 713 -450 1556 -986 843 -535 1549 -981 1570 -992 21 -11 54 -22 74 -26 30 -6 38 -3 52 16 25 36 19 65 -20 109 -20 22 -583 532 -1250 1133 -668 600 -1214 1099 -1214 1108 0 9 148 131 353 289 430 333 437 339 437 350 0 10 -823 760 -853 777 -39 22 -102 16 -137 -13z"/>
 </g>
<g id="layer102" fill="#080503" stroke="none">
 <path d="M6279 7751 c-55 -17 -409 -284 -1664 -1251 -491 -378 -517 -399 -513 -422 2 -12 504 -471 1238 -1131 679 -612 1241 -1124 1249 -1138 9 -16 11 -36 7 -53 -6 -26 -9 -28 -43 -21 -21 4 -54 15 -75 26 -21 11 -730 459 -1575 996 -846 537 -1545 978 -1553 980 -21 5 -1315 -432 -1365 -462 -63 -36 -142 -126 -155 -175 -10 -36 -9 -50 5 -86 19 -49 86 -114 155 -149 70 -36 5270 -2073 5320 -2084 25 -6 77 -11 116 -11 58 0 77 4 105 23 49 33 79 83 79 131 0 23 -205 1076 -456 2340 -426 2151 -457 2302 -484 2341 -98 143 -238 195 -391 146z"/>
 </g>
<g id="layer103" fill="#0087cb" stroke="none">
 <path d="M4595 10228 c-743 -57 -1543 -331 -2215 -756 -1191 -755 -2024 -1961 -2299 -3327 -63 -318 -81 -542 -81 -1020 0 -477 16 -683 76 -1000 152 -792 511 -1566 1025 -2207 817 -1020 1994 -1698 3254 -1876 368 -52 1009 -57 1450 -11 327 34 814 159 1185 304 1324 517 2398 1591 2915 2915 146 373 270 857 304 1185 46 441 41 1082 -11 1450 -148 1047 -642 2042 -1398 2819 -587 602 -1279 1037 -2072 1299 -371 124 -754 201 -1113 227 -173 12 -858 11 -1020 -2z m1891 -2493 c57 -17 121 -67 163 -129 28 -40 57 -182 485 -2342 251 -1264 456 -2317 456 -2339 0 -49 -29 -99 -69 -120 -35 -17 -143 -20 -211 -4 -46 11 -5246 2047 -5315 2081 -113 57 -167 137 -145 217 13 50 75 121 134 156 23 13 336 123 696 245 360 121 661 227 669 234 7 8 107 322 222 697 297 971 309 1007 361 1043 27 19 94 20 125 3 12 -7 207 -181 434 -387 226 -206 414 -376 418 -378 3 -1 302 225 663 502 705 540 695 533 814 535 28 1 73 -6 100 -14z"/>
 </g>

</svg>